<svg xmlns="http://www.w3.org/2000/svg" viewBox="0 0 1200 900" role="img" aria-label="Raman spectroscopy cover">
  <defs>
    <linearGradient id="bg" x1="0" x2="1" y1="0" y2="1"><stop offset="0" stop-color="#081018"/><stop offset="1" stop-color="#020407"/></linearGradient>
  </defs>
  <rect width="1200" height="900" fill="url(#bg)"/>
  <g transform="translate(130 148)" fill="none" stroke-linecap="round">
    <path d="M0 542C74 430 116 274 188 324s110 222 178 148S470 88 536 146s84 366 164 314 130-256 204-200 94 168 166 80" stroke="#8be7dc" stroke-width="6"/>
    <path d="M0 594C88 514 116 436 184 466s118 96 178 54 96-184 158-146 86 234 158 208 128-160 190-132 108 88 202 28" stroke="#d6ed6f" stroke-opacity="0.66" stroke-width="3"/>
    <path d="M0 650h1000M0 94v556" stroke="#8be7dc" stroke-opacity="0.22" stroke-width="2"/>
  </g>
  <g fill="#ff8d61"><circle cx="666" cy="294" r="8"/><circle cx="816" cy="608" r="7"/><circle cx="432" cy="472" r="6"/></g>
</svg>
