<svg xmlns="http://www.w3.org/2000/svg" viewBox="0 0 1200 900" role="img" aria-label="CubeSat challenge cover">
  <defs>
    <linearGradient id="bg" x1="0" x2="1" y1="0" y2="1"><stop offset="0" stop-color="#081018"/><stop offset="1" stop-color="#020407"/></linearGradient>
  </defs>
  <rect width="1200" height="900" fill="url(#bg)"/>
  <g transform="translate(600 452)" fill="none" stroke-linejoin="round">
    <path d="M-160-160h320v320h-320z" fill="#112530" stroke="#8be7dc" stroke-width="4"/>
    <path d="M160-160l120 70v320l-120-70zM-160-160l120-70h320l-120 70z" fill="#0c1a22" stroke="#8be7dc" stroke-opacity="0.65" stroke-width="4"/>
    <path d="M-112-96h224v224h-224zM-66-96v224M0-96v224M66-96v224M-112-40h224M-112 24h224M-112 88h224" stroke="#d6ed6f" stroke-opacity="0.58" stroke-width="3"/>
    <path d="M-280-40h-220M280-40h220" stroke="#8be7dc" stroke-width="8"/>
    <path d="M-520-118h220v156h-220zM300-118h220v156h-220z" fill="#081018" stroke="#8be7dc" stroke-width="4"/>
  </g>
  <circle cx="1000" cy="160" r="5" fill="#d6ed6f"/><circle cx="214" cy="238" r="4" fill="#8be7dc"/><circle cx="976" cy="646" r="3" fill="#ff8d61"/>
</svg>
