<svg xmlns="http://www.w3.org/2000/svg" viewBox="0 0 1200 900" role="img" aria-label="Wheeled-legged robot abstract cover">
  <defs>
    <linearGradient id="bg" x1="0" x2="1" y1="0" y2="1"><stop offset="0" stop-color="#07151c"/><stop offset="1" stop-color="#020407"/></linearGradient>
    <pattern id="grid" width="60" height="60" patternUnits="userSpaceOnUse"><path d="M60 0H0V60" fill="none" stroke="#8be7dc" stroke-opacity="0.08"/></pattern>
  </defs>
  <rect width="1200" height="900" fill="url(#bg)"/><rect width="1200" height="900" fill="url(#grid)"/>
  <g transform="translate(600 474)" fill="none" stroke-linecap="round" stroke-linejoin="round">
    <path d="M-190-126h380l58 170-124 92h-248l-124-92z" fill="#12242e" stroke="#8be7dc" stroke-opacity="0.5" stroke-width="3"/>
    <path d="M-108 44l-116 178M108 44l116 178" stroke="#8be7dc" stroke-width="12"/>
    <circle cx="-258" cy="260" r="72" fill="#071015" stroke="#d6ed6f" stroke-width="9"/>
    <circle cx="258" cy="260" r="72" fill="#071015" stroke="#d6ed6f" stroke-width="9"/>
    <path d="M-94-36h188M-42 40h84" stroke="#d6ed6f" stroke-width="6"/>
    <circle cx="-116" cy="-44" r="12" fill="#8be7dc"/><circle cx="116" cy="-44" r="12" fill="#8be7dc"/>
  </g>
  <path d="M70 714c244-90 412-80 598 4s312 92 462-20" fill="none" stroke="#ff8d61" stroke-opacity="0.28" stroke-width="2"/>
</svg>
