<svg xmlns="http://www.w3.org/2000/svg" viewBox="0 0 1200 900" role="img" aria-label="Fermented astragalus feed cover">
  <defs>
    <linearGradient id="bg" x1="0" x2="1" y1="0" y2="1"><stop offset="0" stop-color="#09150f"/><stop offset="1" stop-color="#030705"/></linearGradient>
    <radialGradient id="glow" cx="50%" cy="43%" r="48%"><stop offset="0" stop-color="#d6ed6f" stop-opacity="0.2"/><stop offset="1" stop-color="#d6ed6f" stop-opacity="0"/></radialGradient>
  </defs>
  <rect width="1200" height="900" fill="url(#bg)"/><rect width="1200" height="900" fill="url(#glow)"/>
  <g transform="translate(600 478)" fill="none" stroke-linecap="round" stroke-linejoin="round">
    <path d="M0 220C-40 88-24-74 0-232C42-84 52 82 0 220z" fill="#13251b" stroke="#d6ed6f" stroke-width="5"/>
    <path d="M0 112C-158 42-252-64-344-194c170 30 286 108 344 306z" fill="#0e2118" stroke="#8be7dc" stroke-opacity="0.7" stroke-width="4"/>
    <path d="M0 98C166 34 260-80 350-198C178-170 54-84 0 98z" fill="#0e2118" stroke="#8be7dc" stroke-opacity="0.7" stroke-width="4"/>
    <circle cx="-202" cy="-94" r="26" stroke="#ff8d61" stroke-width="4"/><circle cx="216" cy="-102" r="20" stroke="#ff8d61" stroke-width="4"/>
  </g>
  <path d="M170 700h860" stroke="#d6ed6f" stroke-opacity="0.3" stroke-width="2"/>
</svg>
